<?xml version="1.0" encoding="UTF-8" standalone="no"?>
<!-- Created with Inkscape (http://www.inkscape.org/) -->

<svg
   xmlns:dc="http://purl.org/dc/elements/1.1/"
   xmlns:cc="http://creativecommons.org/ns#"
   xmlns:rdf="http://www.w3.org/1999/02/22-rdf-syntax-ns#"
   xmlns:svg="http://www.w3.org/2000/svg"
   xmlns="http://www.w3.org/2000/svg"
   xmlns:sodipodi="http://sodipodi.sourceforge.net/DTD/sodipodi-0.dtd"
   xmlns:inkscape="http://www.inkscape.org/namespaces/inkscape"
   width="744.09448819"
   height="1052.3622047"
   id="svg2"
   version="1.1"
   inkscape:version="0.48.4 r9939"
   sodipodi:docname="angry bird.svg">
  <defs
     id="defs4" />
  <sodipodi:namedview
     id="base"
     pagecolor="#ffffff"
     bordercolor="#666666"
     borderopacity="1.0"
     inkscape:pageopacity="0.0"
     inkscape:pageshadow="2"
     inkscape:zoom="0.7"
     inkscape:cx="46.209008"
     inkscape:cy="610.99541"
     inkscape:document-units="px"
     inkscape:current-layer="layer1"
     showgrid="false"
     showguides="true"
     inkscape:guide-bbox="true"
     inkscape:window-width="1301"
     inkscape:window-height="744"
     inkscape:window-x="1425"
     inkscape:window-y="24"
     inkscape:window-maximized="1" />
  <metadata
     id="metadata7">
    <rdf:RDF>
      <cc:Work
         rdf:about="">
        <dc:format>image/svg+xml</dc:format>
        <dc:type
           rdf:resource="http://purl.org/dc/dcmitype/StillImage" />
        <dc:title></dc:title>
      </cc:Work>
    </rdf:RDF>
  </metadata>
  <g
     inkscape:label="Layer 1"
     inkscape:groupmode="layer"
     id="layer1">
    <path
       style="fill:#d40000;stroke:#000000;stroke-width:4.18724632;stroke-linecap:butt;stroke-linejoin:miter;stroke-miterlimit:4;stroke-opacity:1;stroke-dasharray:none"
       d="M 145.66235,313.73676 C 99.973968,297.68329 87.615609,287.19422 70.711799,300.85252 c -18.829068,15.21391 17.265005,34.58367 31.515681,56.34462"
       id="path3764"
       inkscape:connector-curvature="0"
       sodipodi:nodetypes="cac" />
    <path
       style="fill:#ff0000;stroke:#000000;stroke-width:4.76195431;stroke-linecap:butt;stroke-linejoin:miter;stroke-miterlimit:4;stroke-opacity:1;stroke-dasharray:none"
       d="M 125.27405,312.34885 C 76.07548,281.58387 37.743762,250.08191 68.953506,227.49027 100.26963,204.82161 159.16921,238.44011 196.76428,261.02778"
       id="path3759"
       inkscape:connector-curvature="0"
       sodipodi:nodetypes="cac" />
    <g
       id="g3816"
       transform="matrix(1.1003208,0.1629783,-0.14280525,0.9641258,55.029965,5.4645368)">
      <path
         inkscape:connector-curvature="0"
         id="path3812"
         d="m 53.142857,418.07647 34.285714,37.14286 -37.142857,32.85714"
         style="fill:none;stroke:#000000;stroke-width:10;stroke-linecap:butt;stroke-linejoin:miter;stroke-miterlimit:4;stroke-opacity:1;stroke-dasharray:none" />
      <path
         inkscape:connector-curvature="0"
         id="path3814"
         d="m 44.972093,453.8468 35.860416,3.03046"
         style="fill:none;stroke:#000000;stroke-width:10;stroke-linecap:butt;stroke-linejoin:miter;stroke-miterlimit:4;stroke-opacity:1;stroke-dasharray:none" />
    </g>
    <path
       sodipodi:type="arc"
       style="fill:#ff0000;stroke:#000000;stroke-width:10;stroke-miterlimit:4;stroke-dasharray:none"
       id="path2987"
       sodipodi:cx="468.71078"
       sodipodi:cy="472.53461"
       sodipodi:rx="252.53813"
       sodipodi:ry="252.53813"
       d="m 721.24892,472.53461 a 252.53813,252.53813 0 1 1 -505.07627,0 252.53813,252.53813 0 1 1 505.07627,0 z"
       transform="translate(-127.27922,-24.243661)" />
    <path
       style="fill:#d45500;stroke:none"
       d="M 260,679.42138 C 273.79117,615.15294 355.97622,549.69773 419.09397,533.835 469.7286,520.54833 528.04081,544.6879 556.69811,572.27021 517.35696,650.07287 424.34356,698.4889 345.38206,698.8235 317.39756,701.42483 260.12736,683.8049 260,679.42138 z"
       id="path3839"
       inkscape:connector-curvature="0"
       sodipodi:nodetypes="ccccc" />
    <path
       transform="matrix(0.98400714,-0.08976759,0.08092447,1.0915357,33.56902,-47.068441)"
       d="m 393.95949,516.47626 a 17.172594,33.840111 0 1 1 -34.34519,0 17.172594,33.840111 0 1 1 34.34519,0 z"
       sodipodi:ry="33.840111"
       sodipodi:rx="17.172594"
       sodipodi:cy="516.47626"
       sodipodi:cx="376.7869"
       id="path3833"
       style="fill:#aa0000;stroke:none"
       sodipodi:type="arc" />
    <path
       sodipodi:type="arc"
       style="fill:#aa0000;stroke:none"
       id="path3831"
       sodipodi:cx="376.7869"
       sodipodi:cy="516.47626"
       sodipodi:rx="17.172594"
       sodipodi:ry="33.840111"
       d="m 393.95949,516.47626 a 17.172594,33.840111 0 1 1 -34.34519,0 17.172594,33.840111 0 1 1 34.34519,0 z"
       transform="matrix(1.3740073,-0.10158494,0.11299797,1.2352297,-199.84779,-95.295919)" />
    <path
       sodipodi:type="arc"
       style="fill:#ffffff;stroke:#000000;stroke-width:5;stroke-miterlimit:4;stroke-dasharray:none"
       id="path3768"
       sodipodi:cx="369.71582"
       sodipodi:cy="449.30112"
       sodipodi:rx="29.294424"
       sodipodi:ry="29.294424"
       d="m 399.01024,449.30112 a 29.294424,29.294424 0 1 1 -58.58884,0 29.294424,29.294424 0 1 1 58.58884,0 z" />
    <path
       d="m 399.01024,449.30112 a 29.294424,29.294424 0 1 1 -58.58884,0 29.294424,29.294424 0 1 1 58.58884,0 z"
       sodipodi:ry="29.294424"
       sodipodi:rx="29.294424"
       sodipodi:cy="449.30112"
       sodipodi:cx="369.71582"
       id="path3770"
       style="fill:#ffffff;stroke:#000000;stroke-width:5;stroke-miterlimit:4;stroke-dasharray:none"
       sodipodi:type="arc"
       transform="matrix(0.9357825,0,0,0.95302388,85.721925,8.6216523)" />
    <path
       sodipodi:type="arc"
       style="fill:#000000;stroke:#000000;stroke-width:5;stroke-miterlimit:4;stroke-dasharray:none"
       id="path3772"
       sodipodi:cx="384.36304"
       sodipodi:cy="452.83664"
       sodipodi:rx="6.5659914"
       sodipodi:ry="6.5659914"
       d="m 390.92903,452.83664 a 6.5659914,6.5659914 0 1 1 -13.13198,0 6.5659914,6.5659914 0 1 1 13.13198,0 z"
       transform="matrix(1.335192,0,0,1.3284884,-131.86587,-149.71771)" />
    <path
       d="m 390.92903,452.83664 a 6.5659914,6.5659914 0 1 1 -13.13198,0 6.5659914,6.5659914 0 1 1 13.13198,0 z"
       sodipodi:ry="6.5659914"
       sodipodi:rx="6.5659914"
       sodipodi:cy="452.83664"
       sodipodi:cx="384.36304"
       id="path3774"
       style="fill:#000000;stroke:#000000;stroke-width:5;stroke-miterlimit:4;stroke-dasharray:none"
       sodipodi:type="arc"
       transform="translate(41.395949,-10.121831)" />
    <path
       style="fill:none;stroke:#000000;stroke-width:10.34196091;stroke-linecap:butt;stroke-linejoin:miter;stroke-miterlimit:4;stroke-opacity:1;stroke-dasharray:none"
       d="m 337.56194,396.86127 59.76205,21.96429 33.84017,-32.99308 0,0"
       id="path3776"
       inkscape:connector-curvature="0"
       sodipodi:nodetypes="cccc" />
    <path
       style="fill:#ffff00;stroke:#000000;stroke-width:5;stroke-linecap:butt;stroke-linejoin:miter;stroke-miterlimit:4;stroke-opacity:1;stroke-dasharray:none"
       d="m 402.08132,461.42295 c 35.01999,9.42808 84.80094,22.89678 86.87312,46.46701 l -92.93403,-18.18274 z"
       id="path3797"
       inkscape:connector-curvature="0"
       sodipodi:nodetypes="cccc" />
    <g
       id="g3820"
       transform="translate(-4,0)"
       style="fill:#ffcc00">
      <path
         sodipodi:nodetypes="cccc"
         inkscape:connector-curvature="0"
         id="path3799"
         d="m 478.792,509.40519 c -17.84603,4.04061 -37.71235,20.20305 -62.62945,28.28427 -2.35702,-9.42809 -11.78512,-36.02877 -14.14214,-45.45686 20.20305,5.38748 56.56854,11.78511 76.77159,17.17259 z"
         style="fill:#ffcc00;stroke:#000000;stroke-width:5;stroke-linecap:butt;stroke-linejoin:miter;stroke-miterlimit:4;stroke-opacity:1;stroke-dasharray:none" />
    </g>
    <path
       transform="matrix(0.98400714,-0.06342923,0.08092447,0.77127255,-85.978493,164.95037)"
       d="m 393.95949,516.47626 a 17.172594,33.840111 0 1 1 -34.34519,0 17.172594,33.840111 0 1 1 34.34519,0 z"
       sodipodi:ry="33.840111"
       sodipodi:rx="17.172594"
       sodipodi:cy="516.47626"
       sodipodi:cx="376.7869"
       id="path3835"
       style="fill:#aa0000;stroke:none"
       sodipodi:type="arc" />
    <path
       sodipodi:type="arc"
       style="fill:#aa0000;stroke:none"
       id="path3837"
       sodipodi:cx="376.7869"
       sodipodi:cy="516.47626"
       sodipodi:rx="17.172594"
       sodipodi:ry="33.840111"
       d="m 393.95949,516.47626 a 17.172594,33.840111 0 1 1 -34.34519,0 17.172594,33.840111 0 1 1 34.34519,0 z"
       transform="matrix(0.6966386,-0.0469529,0.05729136,0.57092741,-4.78157,291.14439)" />
  </g>
</svg>
