<?xml version="1.0" encoding="UTF-8" standalone="no"?>
<!-- Created with Inkscape (http://www.inkscape.org/) -->

<svg
   xmlns:dc="http://purl.org/dc/elements/1.1/"
   xmlns:cc="http://creativecommons.org/ns#"
   xmlns:rdf="http://www.w3.org/1999/02/22-rdf-syntax-ns#"
   xmlns:svg="http://www.w3.org/2000/svg"
   xmlns="http://www.w3.org/2000/svg"
   xmlns:sodipodi="http://sodipodi.sourceforge.net/DTD/sodipodi-0.dtd"
   xmlns:inkscape="http://www.inkscape.org/namespaces/inkscape"
   width="965.09003"
   height="1052.3622"
   id="svg2"
   version="1.1"
   inkscape:version="0.48.4 r9939"
   sodipodi:docname="Rusty gear.svg"
   inkscape:export-filename="/home/elena/Documents/Офис/Inkscape/Rusty gear.png"
   inkscape:export-xdpi="90"
   inkscape:export-ydpi="90">
  <defs
     id="defs4">
    <filter
       id="filter3027"
       inkscape:menu-tooltip="Roughen all inside shapes"
       inkscape:menu="Distort"
       inkscape:label="Roughen inside"
       color-interpolation-filters="sRGB">
      <feGaussianBlur
         id="feGaussianBlur3029"
         result="result1"
         stdDeviation="3" />
      <feBlend
         id="feBlend3031"
         in2="result1"
         result="result5"
         mode="multiply"
         in="result1" />
      <feGaussianBlur
         id="feGaussianBlur3033"
         in="result5"
         result="result6"
         stdDeviation="1" />
      <feComposite
         id="feComposite3035"
         in2="result5"
         result="result8"
         in="result6"
         operator="xor" />
      <feComposite
         id="feComposite3037"
         in2="result8"
         in="result6"
         result="fbSourceGraphic"
         operator="xor" />
      <feSpecularLighting
         id="feSpecularLighting3039"
         in="fbSourceGraphic"
         result="result1"
         lighting-color="rgb(255,255,255)"
         surfaceScale="2"
         specularConstant="2.2"
         specularExponent="55">
        <fePointLight
           id="fePointLight3041"
           x="-5000"
           y="-10000"
           z="20000" />
      </feSpecularLighting>
      <feComposite
         id="feComposite3043"
         in2="fbSourceGraphic"
         in="result1"
         result="result2"
         operator="in" />
      <feComposite
         id="feComposite3045"
         in2="result2"
         in="fbSourceGraphic"
         result="result4"
         operator="arithmetic"
         k2="2"
         k3="1" />
      <feComposite
         id="feComposite3047"
         in2="result4"
         in="result9"
         operator="in"
         result="result91" />
      <feBlend
         id="feBlend3049"
         in2="result91"
         mode="darken"
         result="fbSourceGraphic" />
      <feColorMatrix
         result="fbSourceGraphicAlpha"
         in="fbSourceGraphic"
         values="0 0 0 -1 0 0 0 0 -1 0 0 0 0 -1 0 0 0 0 1 0"
         id="feColorMatrix3051" />
      <feTurbulence
         id="feTurbulence3053"
         numOctaves="5"
         seed="0"
         type="fractalNoise"
         baseFrequency="0.08"
         in="fbSourceGraphic" />
      <feGaussianBlur
         id="feGaussianBlur3055"
         stdDeviation="0.5"
         result="result91" />
      <feDisplacementMap
         id="feDisplacementMap3057"
         in2="result91"
         scale="20"
         yChannelSelector="G"
         xChannelSelector="R"
         in="fbSourceGraphic"
         result="result1" />
      <feComposite
         id="feComposite3059"
         in2="fbSourceGraphic"
         in="result1"
         operator="atop" />
    </filter>
    <filter
       id="filter3099"
       inkscape:label="Noise transparency"
       inkscape:menu="ABCs"
       inkscape:menu-tooltip="Basic noise transparency texture"
       height="1.4"
       y="-0.2"
       width="1.4"
       x="-0.2"
       color-interpolation-filters="sRGB">
      <feTurbulence
         id="feTurbulence3101"
         baseFrequency="0.05"
         numOctaves="5"
         type="fractalNoise"
         result="result91" />
      <feDisplacementMap
         id="feDisplacementMap3103"
         in2="result91"
         scale="25"
         result="result5"
         xChannelSelector="R"
         in="SourceGraphic" />
      <feComposite
         id="feComposite3105"
         in2="result5"
         in="SourceGraphic"
         operator="atop"
         result="fbSourceGraphic" />
      <feColorMatrix
         result="fbSourceGraphicAlpha"
         in="fbSourceGraphic"
         values="0 0 0 -1 0 0 0 0 -1 0 0 0 0 -1 0 0 0 0 1 0"
         id="feColorMatrix3107" />
      <feTurbulence
         id="feTurbulence3109"
         type="fractalNoise"
         numOctaves="5"
         baseFrequency="0.02"
         result="result1"
         in="fbSourceGraphic" />
      <feComposite
         id="feComposite3111"
         in2="result1"
         operator="in"
         result="result2"
         in="fbSourceGraphic" />
      <feColorMatrix
         id="feColorMatrix3113"
         result="result3"
         values="1 0 0 0 0 0 1 0 0 0 0 0 1 0 0 0 0 0 3 -1 "
         in="result2" />
    </filter>
  </defs>
  <sodipodi:namedview
     id="base"
     pagecolor="#ffffff"
     bordercolor="#666666"
     borderopacity="1.0"
     inkscape:pageopacity="0.0"
     inkscape:pageshadow="2"
     inkscape:zoom="0.35"
     inkscape:cx="33.571429"
     inkscape:cy="520"
     inkscape:document-units="px"
     inkscape:current-layer="layer1"
     showgrid="false"
     inkscape:window-width="1295"
     inkscape:window-height="744"
     inkscape:window-x="65"
     inkscape:window-y="24"
     inkscape:window-maximized="1" />
  <metadata
     id="metadata7">
    <rdf:RDF>
      <cc:Work
         rdf:about="">
        <dc:format>image/svg+xml</dc:format>
        <dc:type
           rdf:resource="http://purl.org/dc/dcmitype/StillImage" />
        <dc:title></dc:title>
      </cc:Work>
    </rdf:RDF>
  </metadata>
  <g
     inkscape:label="Layer 1"
     inkscape:groupmode="layer"
     id="layer1">
    <path
       style="fill:#502d16;stroke:#ffffff;stroke-width:1;stroke-miterlimit:4;stroke-dasharray:none;filter:url(#filter3027)"
       d="M 508.3125 183.5 L 474.25 239.5625 C 440.2622 240.21717 407.70639 246.67932 377.5 257.96875 L 327.1875 219.90625 C 300.83554 233.70658 276.48685 250.98669 254.65625 271.125 L 268.875 329.40625 C 246.11369 353.07631 227.28818 380.56082 213.46875 410.8125 L 159.78125 418.25 C 150.02784 447.50349 143.93272 478.50391 142.03125 510.6875 L 187.21875 538.125 C 187.87595 572.10314 194.30761 604.67646 205.59375 634.875 L 172.34375 678.8125 C 185.02284 707.22913 201.29703 733.56115 220.53125 757.25 L 277.03125 743.46875 C 300.7008 766.22956 328.1866 785.05565 358.4375 798.875 L 367.25 862.5625 C 394.01144 872.32757 422.32022 878.70597 451.6875 881.21875 L 485.75 825.15625 C 519.7378 824.50158 552.29361 818.03943 582.5 806.75 L 632.8125 844.8125 C 659.16446 831.01217 683.51315 813.73206 705.34375 793.59375 L 691.125 735.3125 C 713.88631 711.64244 732.71182 684.15793 746.53125 653.90625 L 800.21875 646.46875 C 809.97216 617.21526 816.06728 586.21484 817.96875 554.03125 L 772.78125 526.59375 C 772.12326 492.61827 765.69157 460.0401 754.40625 429.84375 L 787.65625 385.90625 C 774.97781 357.49341 758.70073 331.15483 739.46875 307.46875 L 682.96875 321.25 C 659.2992 298.48919 631.8134 279.6631 601.5625 265.84375 L 592.75 202.15625 C 565.98876 192.39131 537.67954 186.01276 508.3125 183.5 z M 480 319.5 C 597.55776 319.5 692.84375 414.78599 692.84375 532.34375 C 692.84375 649.90151 597.55776 745.21875 480 745.21875 C 362.44224 745.21875 267.15625 649.90151 267.15625 532.34375 C 267.15625 414.78599 362.44224 319.5 480 319.5 z "
       id="path2985" />
    <path
       style="fill:#c87137;stroke:#ffffff;stroke-width:1;stroke-miterlimit:4;stroke-dasharray:none;filter:url(#filter3099)"
       d="m 488.28125,247.3125 c -7.30323,10.36787 -21.63212,8.56878 -32.75,9.0625 -27.62894,2.77705 -54.91145,9.22228 -80.625,19.65625 -16.40194,-12.35247 -32.79171,-24.72149 -49.1875,-37.09375 -18.98179,10.67224 -36.77043,23.39018 -53.3125,37.75 4.73471,19.18356 9.36743,38.39236 14.15625,57.5625 -26.50528,25.91508 -47.75345,57.1226 -62.15625,91.3125 -17.44619,2.09309 -34.91158,4.70563 -52.375,7.0625 -6.9211,22.54268 -11.33348,45.92239 -13.25,69.46875 14.81218,8.92155 29.56407,17.94239 44.3125,26.96875 -0.28874,37.05378 6.72627,73.98379 20.53125,108.375 -10.86346,14.46711 -21.68638,28.94234 -32.71875,43.28125 9.92805,20.68404 21.85724,40.42293 35.90625,58.5 18.34436,-4.44461 36.70024,-8.84856 55,-13.46875 26.03297,26.53406 57.28323,47.81765 91.375,62.15625 2.5739,20.91797 5.60486,41.77638 8.46875,62.65625 19.96972,6.63169 40.63471,11.36432 61.5625,13.65625 11.17903,-18.31538 22.33858,-36.64265 33.5,-54.96875 37.0691,0.22752 74.10102,-6.58574 108.34375,-20.65625 16.40745,12.38381 32.81884,24.76244 49.21875,37.15625 18.91862,-10.66736 36.9118,-23.40261 53.3125,-37.78125 -4.81473,-19.11971 -9.2673,-38.33008 -14.125,-57.4375 26.40647,-26.11546 47.77265,-57.24596 62.125,-91.40625 17.44619,-2.09309 34.91158,-4.70563 52.375,-7.0625 6.90604,-22.51782 11.33137,-45.93875 13.28125,-69.4375 -14.77719,-9.02923 -29.64311,-17.91127 -44.34375,-27.0625 0.26511,-37.05538 -6.67564,-73.98416 -20.53125,-108.3125 10.8695,-14.46226 21.75817,-28.91025 32.71875,-43.3125 -9.81717,-20.62697 -22.01834,-40.44411 -35.875,-58.46875 -18.35632,4.44117 -36.72035,8.85281 -55.03125,13.46875 -25.94573,-26.51696 -57.17858,-47.76675 -91.375,-62.15625 -2.5739,-20.91797 -5.60486,-41.77638 -8.46875,-62.65625 -19.966,-6.63967 -40.64139,-11.33761 -61.5625,-13.65625 -9.5,15.61458 -19,31.22917 -28.5,46.84375 z M 481.25,303.40625 c 97.65322,-0.83774 191.22468,68.53476 217.91235,162.55158 24.68277,80.53321 1.19199,174.61811 -60.9436,231.85467 -55.45313,53.24824 -138.89312,76.56912 -213.66352,56.72236 C 350.21235,736.01508 286.34522,678.51215 263.00192,605.23695 239.63535,536.35963 251.07593,456.11406 294.8125,397.8125 337.37051,339.1004 408.31469,302.156 481.25,303.40625 z"
       id="path3025"
       inkscape:connector-curvature="0" />
  </g>
</svg>
